<?xml version="1.0" encoding="UTF-8" standalone="no"?>
<svg
   id="visual"
   viewBox="44.75 42.3 600 1200"
   width="600"
   height="1200"
   version="1.1"
   sodipodi:docname="mountain.svg"
   xml:space="preserve"
   inkscape:version="1.3.2 (091e20e, 2023-11-25, custom)"
   xmlns:inkscape="http://www.inkscape.org/namespaces/inkscape"
   xmlns:sodipodi="http://sodipodi.sourceforge.net/DTD/sodipodi-0.dtd"
   xmlns="http://www.w3.org/2000/svg"
   xmlns:svg="http://www.w3.org/2000/svg"><defs
     id="defs5" /><sodipodi:namedview
     id="namedview5"
     pagecolor="#ffffff"
     bordercolor="#000000"
     borderopacity="0.25"
     inkscape:showpageshadow="2"
     inkscape:pageopacity="0.0"
     inkscape:pagecheckerboard="0"
     inkscape:deskcolor="#d1d1d1"
     inkscape:zoom="1"
     inkscape:cx="210.5"
     inkscape:cy="681.5"
     inkscape:window-width="2560"
     inkscape:window-height="1377"
     inkscape:window-x="1912"
     inkscape:window-y="318"
     inkscape:window-maximized="1"
     inkscape:current-layer="visual"
     showgrid="false" /><path
     d="m 644.76585,1007.3631 -42.99839,61 -41.08422,-34.6464 -47.5947,3.9583 -46.53394,-33.1611 -38.0487,-12.00004 -50.63029,9.83884 -65.97931,31.0588 32.88046,209.9516 h 42.99834 42.49857 42.99844 42.99841 42.99851 42.49843 42.99839 z"
     fill="#e000ff"
     id="path1-5"
     style="display:inline;stroke-width:0.707103"
     sodipodi:nodetypes="ccccccccccccccccc" /><path
     d="m 44.765847,1007.341 42.998445,61 42.498428,-35 49.71606,-8.0624 39.46283,13.8614 34.8667,-9.8787 37.54889,-4.6568 41.93761,16.2096 10.96016,202.5269 H 301.75669 259.25806 216.25963 173.26127 130.26272 87.764292 44.765847 Z"
     fill="#e000ff"
     id="path1"
     style="display:inline;stroke-width:0.707103"
     sodipodi:nodetypes="ccccccccccccccccc" /><path
     d="m 644.76585,1095.3631 -48.30169,-21.1612 -43.91264,-25.8284 -74.81832,-6.7678 -43.70552,9.7071 -42.29133,12.1214 -57.70137,33.4436 -47.94808,-7.5858 58.68986,154.0711 h 42.99834 42.49857 42.99844 42.99841 42.99851 42.49843 42.99839 z"
     fill="#a731e7"
     id="path2-2"
     style="display:inline;stroke-width:0.707103"
     sodipodi:nodetypes="ccccccccccccccccc" /><path
     d="m 44.765847,1095.341 24.260115,-4.1906 30.477613,1.3952 69.868605,-6.4142 53.95852,-18.2236 58.90833,15.3033 18.81055,16.1195 43.70539,-2.9896 v 147 H 301.75669 259.25806 216.25963 173.26127 130.26272 87.764292 44.765847 Z"
     fill="#a731e7"
     id="path2"
     style="display:inline;stroke-width:0.707103"
     sodipodi:nodetypes="ccccccccccccccccc" /><path
     d="m 644.76585,1143.3631 -64.23161,-45 -63.48475,37 -64.23179,-20 -64.23163,33 -64.23168,-19 -63.48497,-5 -25.69421,17.0226 -38.53732,101.9774 h 64.23153 63.48497 64.23168 64.23163 64.23179 63.48475 64.23161 z"
     fill="#7239c9"
     id="path3-0"
     style="display:inline;stroke-width:0.864233"
     inkscape:label="path3-0"
     sodipodi:nodetypes="ccccccccccccccccc" /><path
     d="m 44.765847,1143.341 43.33432,-24.1404 54.033083,-39.0139 41.2132,34.8007 66.31514,21.3328 47.93049,-18.2929 39.89133,15.5061 38.73781,-5.6048 249.60869,115.4124 h -83.28553 -82.31774 l -153.2894,-0.3536 -13.28213,0.3536 H 210.36905 128.0517 44.765847 Z"
     fill="#7239c9"
     id="path3"
     style="display:inline;stroke-width:0.984106"
     sodipodi:nodetypes="ccccccccccccccccc" /><path
     d="m 45.1194,1161.5524 42.644892,-26.2114 43.912638,28.9185 41.58434,-9.9185 42.99836,-14 42.99843,36 42.49863,-13 42.99828,9 v 71 H 301.75669 259.25806 216.25963 173.26127 130.26272 87.764292 44.765847 Z"
     fill="#4337a7"
     id="path4"
     style="display:inline;stroke-width:0.707103"
     sodipodi:nodetypes="ccccccccccccccccc" /><path
     d="m 44.765847,1176.341 42.998445,-5 42.498428,37 45.82698,-11.5147 39.46282,21.2929 43.70554,-26.7782 42.49863,-4 47.59447,14.2842 -4.59619,41.7158 H 301.75669 259.25806 216.25963 173.26127 130.26272 87.764292 44.765847 Z"
     fill="#192f81"
     id="path5"
     style="display:inline;stroke-width:0.707103"
     sodipodi:nodetypes="ccccccccccccccccc" /><path
     d="m 645.1194,1162.9887 -56.43342,17.2757 -18.10324,-23.4074 -58.55486,13.416 -40.87709,-24.253 -40.87712,30.3431 -42.49857,-13 -42.99834,9 v 71 h 42.99834 42.49857 42.99844 42.99841 42.99851 42.49843 42.99839 z"
     fill="#4337a7"
     id="path4-6"
     style="display:inline;stroke-width:0.707103"
     sodipodi:nodetypes="ccccccccccccccccc" /><path
     d="m 644.76585,1176.3631 -42.99839,-5 -42.49843,37 -42.99851,-20 -42.99841,22 -42.99844,-19 -60.17624,-13.5459 -48.65519,18.8804 23.33452,46.6655 h 42.99834 42.49857 42.99844 42.99841 42.99851 42.49843 42.99839 z"
     fill="#192f81"
     id="path5-6"
     style="display:inline;stroke-width:0.707103"
     sodipodi:nodetypes="ccccccccccccccccc" /></svg>
